<svg width="95" height="95" viewBox="0 0 95 95" fill="none" xmlns="http://www.w3.org/2000/svg">
<rect width="95" height="95" fill="white"/>
<path d="M75.3687 55.4107C73.5406 53.5734 71.5094 52.3485 69.1735 51.634V19.9911C69.1735 16.0103 65.9236 12.7439 61.9628 12.7439H24.5887C20.6278 12.7439 17.3779 16.0103 17.3779 19.9911V69.2927C17.3779 73.2736 20.6278 76.54 24.5887 76.54H52.213C52.5177 76.9483 52.8224 77.2545 53.2286 77.6628C56.2754 80.725 60.3378 82.2561 64.2987 82.2561C68.2595 82.2561 72.3219 80.725 75.3687 77.6628C81.4623 71.4363 81.4623 61.5351 75.3687 55.4107ZM24.5887 73.4778C22.2528 73.4778 20.4247 71.6404 20.4247 69.2927V19.9911C20.4247 17.6434 22.2528 15.8061 24.5887 15.8061H61.9628C64.2987 15.8061 66.1267 17.6434 66.1267 19.9911V50.9195C61.5565 50.4091 56.6817 51.8381 53.2286 55.4107C48.3537 60.3102 47.3381 67.6596 50.2834 73.5798H24.5887V73.4778ZM73.1344 75.4172C68.2595 80.3167 60.2363 80.3167 55.2598 75.4172C50.3849 70.5176 50.3849 62.4538 55.2598 57.4522C60.1347 52.5526 68.1579 52.5526 73.1344 57.4522C78.1108 62.4538 78.1108 70.5176 73.1344 75.4172Z" fill="#2C2C2C"/>
<path d="M27.0263 47.1428H45.6118C46.729 47.1428 47.643 46.2241 47.643 45.1013C47.643 43.9785 46.729 43.0598 45.6118 43.0598H27.0263C25.9092 43.0598 24.9951 43.9785 24.9951 45.1013C24.9951 46.2241 25.9092 47.1428 27.0263 47.1428Z" fill="#2C2C2C"/>
<path d="M46.0181 56.5335H27.331C26.2138 56.5335 25.2998 57.4522 25.2998 58.575C25.2998 59.6978 26.2138 60.6165 27.331 60.6165H45.9165C47.0336 60.6165 47.9477 59.6978 47.9477 58.575C47.9477 57.4522 47.1352 56.5335 46.0181 56.5335Z" fill="#2C2C2C"/>
<path d="M60.5408 39.7934H51.4004V48.9801H60.5408V39.7934ZM57.494 45.9179H54.4472V42.8557H57.494V45.9179Z" fill="#2C2C2C"/>
<path d="M27.0263 32.8525H45.6118C46.729 32.8525 47.643 31.9338 47.643 30.811C47.643 29.6882 46.729 28.7695 45.6118 28.7695H27.0263C25.9092 28.7695 24.9951 29.6882 24.9951 30.811C24.9951 31.9338 25.9092 32.8525 27.0263 32.8525Z" fill="#2C2C2C"/>
<path d="M60.5408 25.5031H51.4004V34.6897H60.5408V25.5031ZM57.494 31.6275H54.4472V28.5653H57.494V31.6275Z" fill="#2C2C2C"/>
<path d="M65.7205 58.575H62.7752V65.0056H56.377V67.9658H62.7752V74.3964H65.7205V67.9658H72.1188V65.0056H65.7205V58.575Z" fill="#2C2C2C"/>
</svg>
