<svg width="95" height="95" viewBox="0 0 95 95" fill="none" xmlns="http://www.w3.org/2000/svg">
<rect width="95" height="95" fill="white"/>
<path d="M28.1368 47.1617H46.6301C47.7417 47.1617 48.6512 46.2425 48.6512 45.1191C48.6512 43.9957 47.7417 43.0765 46.6301 43.0765H28.1368C27.0252 43.0765 26.1157 43.9957 26.1157 45.1191C26.1157 46.2425 27.0252 47.1617 28.1368 47.1617Z" fill="#2C2C2C"/>
<path d="M47.0344 56.5577H28.4401C27.3285 56.5577 26.4189 57.4768 26.4189 58.6003C26.4189 59.7237 27.3285 60.6429 28.4401 60.6429H46.9333C48.045 60.6429 48.9545 59.7237 48.9545 58.6003C48.9545 57.4768 48.146 56.5577 47.0344 56.5577Z" fill="#2C2C2C"/>
<path d="M61.4857 39.8083H52.3906V49H61.4857V39.8083ZM58.454 45.9361H55.4223V42.8722H58.454V45.9361Z" fill="#2C2C2C"/>
<path d="M28.1368 32.8635H46.6301C47.7417 32.8635 48.6512 31.9443 48.6512 30.8209C48.6512 29.6975 47.7417 28.7783 46.6301 28.7783H28.1368C27.0252 28.7783 26.1157 29.6975 26.1157 30.8209C26.1157 31.9443 27.0252 32.8635 28.1368 32.8635Z" fill="#2C2C2C"/>
<path d="M61.4857 25.5101H52.3906V34.7018H61.4857V25.5101ZM58.454 31.6379H55.4223V28.574H58.454V31.6379Z" fill="#2C2C2C"/>
<path d="M83.4147 84.7455L76.5429 77.8007C78.665 75.1453 79.8777 71.775 79.8777 68.0983C79.8777 61.4599 75.8355 55.8427 70.0753 53.4938V19.9951C70.0753 16.0121 66.8415 12.7439 62.9003 12.7439H25.7116C21.7704 12.7439 18.5366 16.0121 18.5366 19.9951V69.3239C18.5366 73.307 21.7704 76.5751 25.7116 76.5751H51.1778C53.9063 80.9667 58.757 83.9285 64.3151 83.9285C68.1552 83.9285 71.6922 82.4987 74.4207 80.1497L81.1914 86.9924L83.4147 84.7455ZM25.7116 73.5112C23.3873 73.5112 21.5683 71.6729 21.5683 69.3239V19.9951C21.5683 17.6461 23.3873 15.8078 25.7116 15.8078H62.9003C65.2246 15.8078 67.0436 17.6461 67.0436 19.9951V52.6767C66.1341 52.4725 65.2246 52.3703 64.3151 52.3703C55.7253 52.3703 48.7524 59.4173 48.7524 68.0983C48.7524 69.9367 49.0556 71.775 49.6619 73.4091H25.7116V73.5112ZM64.3151 80.8646C57.4432 80.8646 51.7841 75.1453 51.7841 68.2005C51.7841 61.2556 57.4432 55.5364 64.3151 55.5364C71.1869 55.5364 76.846 61.2556 76.846 68.2005C76.846 75.1453 71.1869 80.8646 64.3151 80.8646Z" fill="#2C2C2C"/>
</svg>
