<svg width="95" height="95" viewBox="0 0 95 95" fill="none" xmlns="http://www.w3.org/2000/svg">
<rect width="95" height="95" fill="white"/>
<path d="M58.7837 31.0147V26.8762L38.8153 29.1524L38.1946 16.2195H21.8474L18.5366 80.3665H38.8153H41.5054H76.5793V38.9814V28.9455L58.7837 31.0147ZM65.3019 33.3944V38.9814H58.7837V34.1186L65.3019 33.3944ZM55.6798 38.9814H49.472V31.1182L55.6798 30.3939V38.9814ZM39.0223 32.2563L46.5751 31.4286V38.9814H39.3327L39.0223 31.9459V32.2563ZM35.2976 19.3234L35.608 24.4965H24.434L24.7444 19.3234H35.2976ZM21.8474 77.2626L24.3305 27.6004H35.7115L38.1946 77.2626H21.8474ZM73.4754 77.2626H41.2985L39.5396 42.0852H73.4754V77.2626ZM68.1988 38.9814V33.084L73.4754 32.4632V38.9814H68.1988Z" fill="#2C2C2C"/>
<path d="M54.4384 53.3628V45.2927H45.644V53.3628H54.4384ZM48.541 48.1897H51.5414V50.4659H48.541V48.1897Z" fill="#2C2C2C"/>
<path d="M67.6816 45.2927H58.8872V53.3628H67.6816V45.2927ZM64.7846 50.4659H61.7842V48.1897H64.7846V50.4659Z" fill="#2C2C2C"/>
</svg>
