<svg width="95" height="95" viewBox="0 0 95 95" fill="none" xmlns="http://www.w3.org/2000/svg">
<rect width="95" height="95" fill="white"/>
<path d="M80.7914 62.8058H80.0852C79.8834 62.2985 79.6817 61.7912 79.4799 61.2839L79.9843 60.7766C80.4888 60.2693 80.7914 59.5591 80.7914 58.8488C80.7914 58.1386 80.4888 57.4284 79.9843 56.9211L77.0586 53.9788C76.5541 53.4715 75.8479 53.1671 75.1417 53.1671C74.4355 53.1671 73.7292 53.4715 73.2248 53.9788L72.7204 54.4861C72.2159 54.2832 71.7115 54.0803 71.207 53.8773V53.1671C71.207 52.4569 70.9044 51.7467 70.3999 51.2394V36.2234V26.3819L53.0471 28.4111V24.3527L33.5756 26.5848L33.0712 13.9024H17.1308L13.9023 76.8071H33.6765H36.2996H52.4418C52.5426 77.3144 52.7444 77.7202 53.148 78.1261L56.0737 81.0684C56.5782 81.5757 57.2844 81.8801 57.9906 81.8801C58.6968 81.8801 59.4031 81.5757 59.9075 81.0684L60.412 80.5611C60.9164 80.764 61.4208 80.9669 61.9253 81.1699V81.8801C61.9253 83.402 63.1359 84.518 64.5484 84.518H68.6848C70.1981 84.518 71.3079 83.3005 71.3079 81.8801V81.1699C71.8124 80.9669 72.3168 80.764 72.8212 80.5611L73.3257 81.0684C73.8301 81.5757 74.5363 81.8801 75.2426 81.8801C75.9488 81.8801 76.655 81.5757 77.1595 81.0684L80.0852 78.1261C80.5897 77.6188 80.8923 76.9086 80.8923 76.1984C80.8923 75.4881 80.5897 74.7779 80.0852 74.2706L79.4799 73.8648C79.6817 73.3575 79.8834 72.8502 80.0852 72.3429H80.7914C82.3048 72.3429 83.4145 71.1254 83.4145 69.705V65.5451C83.4145 64.0233 82.2039 62.8058 80.7914 62.8058ZM19.9557 16.9462H30.1454L30.4481 22.0192H19.653L19.9557 16.9462ZM17.1308 73.7633L19.5521 25.0629H30.6498L33.0712 73.7633H17.1308ZM62.3288 30.4403L67.4742 29.8315V36.2234H62.3288V30.4403ZM53.148 31.4549L59.504 30.7447V36.2234H53.148V31.4549ZM44.068 28.5126L50.1213 27.8023V36.2234H44.068V28.5126ZM33.8783 29.3242V29.6286L41.2431 28.8169V36.2234H34.1809L33.8783 29.3242ZM36.0978 73.7633L34.3827 39.2672H67.4742V50.6306H64.5484C63.0351 50.6306 61.9253 51.8482 61.9253 53.2686V53.9788C61.4208 54.1817 60.9164 54.3846 60.412 54.5876L59.9075 54.0803C59.4031 53.573 58.6968 53.2686 57.9906 53.2686C57.2844 53.2686 56.5782 53.573 56.0737 54.0803L53.148 57.0226C52.1391 58.0372 52.1391 59.762 53.148 60.7766L53.6524 61.2839C53.4506 61.7912 53.2489 62.2985 53.0471 62.8058H52.3409C50.8275 62.8058 49.7178 64.0233 49.7178 65.4437V69.6035C49.7178 71.1254 50.9284 72.2415 52.3409 72.2415H53.0471C53.2489 72.7487 53.4506 73.256 53.6524 73.6619H36.0978V73.7633ZM80.7914 69.6035H78.471C78.1683 69.6035 77.9666 69.8064 77.8657 70.1108C77.563 71.4298 77.0586 72.7487 76.3523 73.8648C76.1506 74.0677 76.2515 74.3721 76.4532 74.575L78.0674 76.1984L75.1417 79.1407L73.5275 77.5173C73.4266 77.4159 73.2248 77.3144 73.1239 77.3144C73.023 77.3144 72.9221 77.3144 72.8212 77.4159C71.7115 78.1261 70.3999 78.6334 69.0884 78.9378C68.7857 79.0392 68.5839 79.2421 68.5839 79.5465V81.8801H64.4475V79.5465C64.4475 79.2421 64.2457 79.0392 63.9431 78.9378C62.6315 78.6334 61.32 78.1261 60.2102 77.4159C60.1093 77.3144 60.0084 77.3144 59.9075 77.3144C59.7057 77.3144 59.6048 77.4159 59.504 77.5173L57.8897 79.1407L54.964 76.1984L56.5782 74.575C56.78 74.3721 56.78 74.0677 56.6791 73.8648C55.9729 72.7487 55.4684 71.4298 55.1658 70.1108C55.0649 69.8064 54.8631 69.6035 54.5604 69.6035H52.24V65.4437H54.5604C54.8631 65.4437 55.0649 65.2408 55.1658 64.9364C55.4684 63.6174 55.9729 62.2985 56.6791 61.1824C56.8809 60.9795 56.78 60.6751 56.5782 60.4722L54.964 58.8488L57.8897 55.9065L59.504 57.5299C59.6048 57.6313 59.8066 57.7328 59.9075 57.7328C60.0084 57.7328 60.1093 57.7328 60.2102 57.6313C61.32 56.9211 62.6315 56.4138 63.9431 56.1094C64.2457 56.008 64.4475 55.8051 64.4475 55.5007V53.2686H68.5839V55.5007C68.5839 55.8051 68.7857 56.008 69.0884 56.1094C70.3999 56.4138 71.7115 56.9211 72.8212 57.6313C72.9221 57.7328 73.023 57.7328 73.1239 57.7328C73.3257 57.7328 73.4266 57.6313 73.5275 57.5299L75.1417 55.9065L78.0674 58.8488L76.4532 60.4722C76.2515 60.6751 76.2515 60.9795 76.3523 61.1824C77.0586 62.2985 77.563 63.6174 77.8657 64.9364C77.9666 65.2408 78.1683 65.4437 78.471 65.4437H80.6905V69.6035H80.7914Z" fill="#2C2C2C"/>
<path d="M66.5662 59.559C62.1273 59.559 58.5962 63.2116 58.5962 67.5743C58.5962 71.9371 62.2282 75.5896 66.5664 75.5896C70.9046 75.5896 74.5366 71.9371 74.5366 67.5743C74.5366 63.2116 70.9046 59.559 66.5664 59.559ZM66.5664 72.9517C63.6406 72.9517 61.2193 70.5166 61.2193 67.5743C61.2193 64.632 63.6406 62.197 66.5664 62.197C69.4922 62.197 71.9135 64.632 71.9135 67.5743C71.9135 70.5166 69.4922 72.9517 66.5664 72.9517Z" fill="#2C2C2C"/>
<path d="M40.335 50.3263H48.9105V42.4125H40.335V50.3263ZM43.1598 45.2533H46.0856V47.4854H43.1598V45.2533Z" fill="#2C2C2C"/>
<path d="M61.8245 42.4125H53.249V50.3263H61.8245V42.4125ZM58.9997 47.4854H56.0739V45.2533H58.9997V47.4854Z" fill="#2C2C2C"/>
</svg>
