<svg width="95" height="95" viewBox="0 0 95 95" fill="none" xmlns="http://www.w3.org/2000/svg">
<rect width="95" height="95" fill="white"/>
<path d="M79.1173 62.9585H78.397C78.1912 62.444 77.9854 61.9295 77.7796 61.415L78.2941 60.9005C78.8086 60.386 79.1173 59.6657 79.1173 58.9454C79.1173 58.2252 78.8086 57.5049 78.2941 56.9904L75.3101 54.0063C74.7956 53.4918 74.0753 53.1831 73.355 53.1831C72.6347 53.1831 71.9144 53.4918 71.3999 54.0063L70.8854 54.5208C70.3709 54.315 69.8564 54.1092 69.3419 53.9034V53.1831C69.3419 51.6396 68.1071 50.5077 66.6666 50.5077H62.4477C58.8463 46.8034 54.4216 44.128 49.4825 43.099C55.7593 41.144 60.3897 35.1758 60.3897 28.1787C60.3897 19.741 53.3926 12.7439 44.852 12.7439C36.2085 12.7439 29.2114 19.741 29.2114 28.2816C29.2114 35.2787 33.739 41.144 40.1187 43.2019C27.2563 45.8773 17.3781 59.6657 17.3781 76.1295V77.673H50.4086C50.5115 77.9817 50.7173 78.2904 51.0259 78.4962L54.01 81.4803C54.5245 81.9948 55.2448 82.3035 55.9651 82.3035C56.6854 82.3035 57.4057 81.9948 57.9202 81.4803L58.4347 80.9658C58.9492 81.1716 59.4636 81.3774 59.9781 81.5832V82.3035C59.9781 83.8469 61.2129 84.9788 62.6535 84.9788H66.8724C68.4158 84.9788 69.5477 83.744 69.5477 82.3035V81.5832C70.0622 81.3774 70.5767 81.1716 71.0912 80.9658L71.6057 81.4803C72.1202 81.9948 72.8405 82.3035 73.5608 82.3035C74.2811 82.3035 75.0014 81.9948 75.5159 81.4803L78.4999 78.4962C79.0144 77.9817 79.3231 77.2614 79.3231 76.5411C79.3231 75.8208 79.0144 75.1006 78.4999 74.5861L77.9854 74.0716C78.1912 73.5571 78.397 73.0426 78.6028 72.5281H79.1173C80.6608 72.5281 81.7927 71.2933 81.7927 69.8527V65.6339C81.7927 64.1933 80.6608 62.9585 79.1173 62.9585ZM32.2984 28.2816C32.2984 21.3874 37.8549 15.8309 44.852 15.8309C51.7462 15.8309 57.3028 21.3874 57.3028 28.2816C57.3028 35.1758 51.7462 40.8353 44.852 40.8353C37.8549 40.8353 32.2984 35.1758 32.2984 28.2816ZM44.852 45.7744C50.6144 45.7744 55.8622 48.244 59.9781 52.3599C59.8752 52.6686 59.7723 52.9773 59.7723 53.286V54.0063C59.2579 54.2121 58.7434 54.4179 58.2289 54.6237L57.7144 54.1092C57.1999 53.5947 56.4796 53.286 55.7593 53.286C55.039 53.286 54.3187 53.5947 53.8042 54.1092L50.8201 57.0933C49.7912 58.1223 49.7912 59.8715 50.8201 60.9005L51.3346 61.415C51.1288 61.9295 50.923 62.444 50.7173 62.9585H49.997C48.4535 62.9585 47.3216 64.1933 47.3216 65.6339V69.8527C47.3216 71.3962 48.5564 72.5281 49.997 72.5281H50.7173C50.923 73.0426 51.1288 73.5571 51.3346 74.0716L50.923 74.4832H20.465C21.1853 58.5339 31.7839 45.7744 44.852 45.7744ZM79.1173 69.8527H76.8535C76.5448 69.8527 76.339 70.0585 76.2361 70.3672C75.9274 71.7049 75.413 73.0426 74.6927 74.1745C74.4869 74.3803 74.5898 74.689 74.7956 74.9977L76.4419 76.644L73.4579 79.6281L71.8115 77.9817C71.7086 77.8788 71.5028 77.7759 71.3999 77.7759C71.297 77.7759 71.1941 77.7759 71.0912 77.8788C69.9593 78.5991 68.6216 79.1136 67.284 79.4223C66.9753 79.5252 66.7695 79.731 66.7695 80.0397V82.3035H62.5506V79.9368C62.5506 79.6281 62.3448 79.4223 62.0361 79.3194C60.6984 79.0107 59.3607 78.4962 58.2289 77.7759C58.126 77.673 58.0231 77.673 57.9202 77.673C57.7144 77.673 57.6115 77.7759 57.5086 77.8788L55.8622 79.5252L54.01 77.673L52.8781 76.5411L54.5245 74.8948C54.6274 74.7919 54.6274 74.689 54.7303 74.5861C54.7303 74.4832 54.7303 74.2774 54.6274 74.1745C53.9071 73.0426 53.3926 71.7049 53.0839 70.3672C52.981 70.0585 52.7752 69.8527 52.4665 69.8527H50.2028V65.6339H52.4665C52.7752 65.6339 52.981 65.4281 53.0839 65.1194C53.3926 63.7817 53.9071 62.444 54.6274 61.3121C54.8332 61.1063 54.7303 60.6947 54.5245 60.4889L52.8781 59.0483L55.8622 56.0643L57.5086 57.7107C57.6115 57.8136 57.8173 57.9165 57.9202 57.9165C58.0231 57.9165 58.126 57.9165 58.2289 57.8136C59.3607 57.0933 60.6984 56.5788 62.0361 56.2701C62.3448 56.1672 62.5506 55.9614 62.5506 55.6527V55.4469V53.3889H64.8144H66.6666V55.6527C66.6666 55.9614 66.8724 56.1672 67.1811 56.2701C68.5187 56.5788 69.8564 57.0933 70.9883 57.8136C71.0912 57.9165 71.1941 57.9165 71.297 57.9165C71.5028 57.9165 71.6057 57.8136 71.7086 57.7107L73.355 56.0643L76.339 59.0483L74.6927 60.6947C74.4869 60.9005 74.4869 61.2092 74.5898 61.5179C75.3101 62.6498 75.8245 63.9875 76.1332 65.3252C76.2361 65.6339 76.4419 65.8397 76.7506 65.8397H79.1173V69.8527Z" fill="#282828"/>
<path d="M64.6086 59.6658C60.081 59.6658 56.4796 63.3701 56.4796 67.7948C56.4796 72.2194 60.1839 75.9238 64.6086 75.9238C69.0332 75.9238 72.7376 72.2194 72.7376 67.7948C72.7376 63.3701 69.1361 59.6658 64.6086 59.6658ZM64.6086 73.2484C61.6245 73.2484 59.1549 70.7788 59.1549 67.7948C59.1549 64.8107 61.6245 62.3411 64.6086 62.3411C67.5926 62.3411 70.0622 64.8107 70.0622 67.7948C70.0622 70.7788 67.5926 73.2484 64.6086 73.2484Z" fill="#282828"/>
</svg>
