<svg width="95" height="95" viewBox="0 0 95 95" fill="none" xmlns="http://www.w3.org/2000/svg">
<rect width="95" height="95" fill="white"/>
<path d="M75.3644 56.3602C72.3146 53.2741 68.1465 51.7311 64.0801 51.7311C60.3187 47.4106 55.5407 44.3246 50.2544 43.193C56.4557 41.2385 61.0304 35.2721 61.0304 28.3799C61.0304 19.739 54.1175 12.7439 45.6798 12.7439C37.242 12.7439 30.2275 19.739 30.2275 28.3799C30.2275 35.375 34.8022 41.2385 41.0034 43.193C28.2959 45.8676 18.5366 59.652 18.5366 76.111V77.654H52.186C52.4909 78.0655 52.7959 78.3741 53.2026 78.7855C56.2523 81.8716 60.3187 83.4146 64.2835 83.4146C68.2482 83.4146 72.3146 81.8716 75.3644 78.7855C81.464 72.6134 81.464 62.5323 75.3644 56.3602ZM33.2773 28.3799C33.2773 21.4877 38.8686 15.83 45.6798 15.83C52.4909 15.83 58.0822 21.4877 58.0822 28.3799C58.0822 35.2721 52.4909 40.9299 45.6798 40.9299C38.8686 40.9299 33.2773 35.2721 33.2773 28.3799ZM21.5864 74.5679C22.1964 58.5204 32.769 45.7647 45.5781 45.7647C51.1694 45.7647 56.2523 48.1307 60.3187 52.1426C57.6756 52.8627 55.1341 54.1999 53.1009 56.2573C48.2212 61.195 47.2046 68.6015 50.1528 74.5679H21.5864ZM73.1279 76.5224C68.2482 81.4601 60.2171 81.4601 55.2358 76.5224C50.3561 71.5847 50.3561 63.4581 55.2358 58.4176C60.1154 53.4799 68.1465 53.4799 73.1279 58.4176C78.1092 63.4581 78.1092 71.5847 73.1279 76.5224Z" fill="#2C2C2C"/>
<path d="M65.7067 59.5491H62.7586V66.0298H56.354V69.013H62.7586V75.4937H65.7067V69.013H72.1113V66.0298H65.7067V59.5491Z" fill="#2C2C2C"/>
</svg>
